HIERARCHY
ROOT Hips
{
 OFFSET 0.000000 0.000000 0.000000
 CHANNELS 6 Xposition Yposition Zposition Yrotation Xrotation Zrotation
 JOINT Chest
 {
  OFFSET 0.000000 14.374500 -0.011500
  CHANNELS 3 Yrotation Xrotation Zrotation
  JOINT Chest2
  {
   OFFSET 0.000000 9.203400 0.023400
   CHANNELS 3 Yrotation Xrotation Zrotation
   JOINT Chest3
   {
    OFFSET 0.000000 9.162700 0.000000
    CHANNELS 3 Yrotation Xrotation Zrotation
    JOINT Chest4
    {
     OFFSET 0.000000 9.153300 0.000000
     CHANNELS 3 Yrotation Xrotation Zrotation
     JOINT Neck
     {
      OFFSET 0.000000 13.353600 0.000000
      CHANNELS 3 Yrotation Xrotation Zrotation
      JOINT Head
      {
       OFFSET 0.000000 8.573800 0.049400
       CHANNELS 3 Yrotation Xrotation Zrotation
       End Site
       {
        OFFSET 0.000000 16.219200 0.026100
       }
      }
     }
     JOINT RightCollar
     {
      OFFSET -2.497100 8.876100 0.000000
      CHANNELS 3 Yrotation Xrotation Zrotation
      JOINT RightShoulder
      {
       OFFSET -12.289200 0.000000 0.000000
       CHANNELS 3 Yrotation Xrotation Zrotation
       JOINT RightElbow
       {
        OFFSET 0.000000 -28.194900 0.000000
        CHANNELS 3 Yrotation Xrotation Zrotation
        JOINT RightWrist
        {
         OFFSET 0.000000 -23.009700 0.007900
         CHANNELS 3 Yrotation Xrotation Zrotation
         End Site
         {
          OFFSET 0.000000 -17.151500 0.000000
         }
        }
       }
      }
     }
     JOINT LeftCollar
     {
      OFFSET 2.497100 8.876100 0.000000
      CHANNELS 3 Yrotation Xrotation Zrotation
      JOINT LeftShoulder
      {
       OFFSET 12.289200 0.000000 0.000000
       CHANNELS 3 Yrotation Xrotation Zrotation
       JOINT LeftElbow
       {
        OFFSET 0.000000 -28.194900 0.000000
        CHANNELS 3 Yrotation Xrotation Zrotation
        JOINT LeftWrist
        {
         OFFSET 0.000000 -23.009700 0.007900
         CHANNELS 3 Yrotation Xrotation Zrotation
         End Site
         {
          OFFSET 0.000000 -17.151500 0.000000
         }
        }
       }
      }
     }
    }
   }
  }
 }
 JOINT RightHip
 {
  OFFSET -11.777600 0.056700 0.005700
  CHANNELS 3 Yrotation Xrotation Zrotation
  JOINT RightKnee
  {
   OFFSET 0.000000 -39.966000 -0.004200
   CHANNELS 3 Yrotation Xrotation Zrotation
   JOINT RightAnkle
   {
    OFFSET 0.000000 -41.981900 0.027400
    CHANNELS 3 Yrotation Xrotation Zrotation
    JOINT RightToe
    {
     OFFSET 0.000000 -9.910600 16.950100
     CHANNELS 3 Yrotation Xrotation Zrotation
     End Site
     {
      OFFSET 0.000000 -1.461000 6.191600
     }
    }
   }
  }
 }
 JOINT LeftHip
 {
  OFFSET 11.777600 0.056700 0.005700
  CHANNELS 3 Yrotation Xrotation Zrotation
  JOINT LeftKnee
  {
   OFFSET 0.000000 -39.966000 -0.004200
   CHANNELS 3 Yrotation Xrotation Zrotation
   JOINT LeftAnkle
   {
    OFFSET 0.000000 -41.981900 0.027400
    CHANNELS 3 Yrotation Xrotation Zrotation
    JOINT LeftToe
    {
     OFFSET 0.000000 -9.910600 16.950100
     CHANNELS 3 Yrotation Xrotation Zrotation
     End Site
     {
      OFFSET 0.000000 -1.461000 6.191600
     }
    }
   }
  }
 }
}
MOTION
Frames: 15
Frame Time: 0.008333
0.000000 91.618700 0.000000 0.000000 -5.767877 0.000000 0.000000 11.653817 0.000000 0.000000 -5.885947 0.000000 0.000000 -0.000000 0.000000 0.000000 -0.000000 0.000000 0.000000 12.528835 0.000000 0.000000 0.711642 0.000000 0.000000 -0.000000 0.000000 0.000000 0.000000 -90.000000 0.000000 -2.309062 0.000000 0.000000 2.309062 0.000000 0.000000 -0.000000 0.000000 0.000000 -0.000000 90.000000 0.000000 -2.309062 0.000000 0.000000 2.309062 0.000000 0.000000 8.520406 0.000000 0.000000 1.905762 0.000000 -0.000000 -4.658285 0.000000 0.000000 -0.000000 0.000000 0.000000 8.520406 0.000000 0.000000 1.905762 0.000000 -0.000000 -4.658285 0.000000 0.000000 -0.000000 0.000000
7.574016 152.546208 22.342389 165.970782 -49.815367 -1.205810 5.999911 28.980355 5.401658 0.885335 5.566959 0.806007 1.406087 8.697879 1.273181 4.367968 23.179374 4.044279 3.143817 16.320537 -3.562095 4.200660 -8.432037 -4.571484 5.216370 -1.457385 0.339255 11.748591 -30.861449 -9.976832 26.896944 -54.865697 -12.654764 34.823633 20.038019 -3.743427 -13.319405 -4.438021 -1.505814 -4.448244 -29.322863 4.439092 -5.374031 -51.055003 -13.137373 -3.969963 -12.013236 16.635455 8.354926 -29.238033 6.891119 -52.174109 86.302990 -54.535685 1.733250 -22.892654 8.070348 0.020886 -0.111610 0.001524 2.199695 -26.855898 0.775902 150.357909 67.967235 162.968892 -0.504122 22.837897 0.470855 0.482339 -13.876380 -3.764214
6.288544 145.550161 24.219186 166.075997 -49.766119 -1.324603 5.956531 28.928621 5.459345 0.889106 5.562662 0.806424 1.395189 8.701332 1.262791 4.388277 23.171879 4.069381 3.136008 16.331557 -3.590403 4.214586 -8.421621 -4.593738 5.194893 -1.462582 0.332032 11.731779 -30.846389 -9.895184 26.987297 -54.838418 -12.752091 34.824389 20.039518 -3.743088 -13.314313 -4.462889 -1.503952 -4.456232 -29.293608 4.434495 -5.396306 -51.029411 -13.130539 -3.948141 -12.064007 16.650627 8.275563 -29.307215 6.922411 -52.468127 86.317643 -54.823074 1.733835 -22.954675 8.075523 0.007336 -0.074200 0.004288 2.121088 -26.895916 0.811593 150.332118 67.982891 162.949485 -0.488087 22.831610 0.484657 0.013049 -0.007165 0.007629
5.227284 139.792232 25.760436 166.125866 -49.740734 -1.379513 5.949159 28.899418 5.504192 0.886872 5.557656 0.804086 1.391194 8.698454 1.264539 4.395262 23.164232 4.082329 3.152375 16.353471 -3.626057 4.265490 -8.381780 -4.658894 5.183062 -1.494716 0.345184 11.719532 -30.791646 -9.867596 26.945086 -54.842108 -12.714189 34.863043 20.052755 -3.757874 -13.300741 -4.490168 -1.495256 -4.471427 -29.255742 4.401289 -5.454730 -50.991189 -13.077784 -3.916651 -12.119841 16.652256 8.244419 -29.345637 6.929130 -52.656969 86.331068 -55.005795 1.740448 -22.992682 8.075988 0.006868 -0.052732 0.004014 2.089230 -26.913785 0.823377 150.323294 67.996628 162.937383 -0.466327 22.835694 0.502382 0.004545 -0.005812 0.002658
4.463938 135.635309 26.872242 166.181827 -49.724493 -1.444333 5.944802 28.875968 5.557213 0.883895 5.553182 0.803592 1.392460 8.693729 1.268614 4.443571 23.125710 4.135401 3.120927 16.408215 -3.684766 4.314479 -8.332423 -4.723684 5.128965 -1.474428 0.322912 11.700241 -30.759119 -9.851715 26.923252 -54.840086 -12.695148 34.860671 20.057999 -3.769094 -13.336303 -4.493779 -1.518796 -4.480203 -29.218073 4.395926 -5.502179 -50.946829 -13.048723 -3.876895 -12.187099 16.650663 8.210991 -29.368794 6.943670 -52.759793 86.338658 -55.093750 1.734970 -23.030903 8.076519 0.002505 -0.022295 0.001464 2.046137 -26.922047 0.844886 150.324029 68.007096 162.934813 -0.449288 22.828877 0.511968 0.000267 -0.004878 0.000156
3.981405 133.010315 27.572741 166.195993 -49.709300 -1.464226 5.962849 28.853392 5.596817 0.882075 5.548572 0.803137 1.389664 8.686404 1.274771 4.435449 23.129321 4.133876 3.219864 16.439898 -3.730667 4.275641 -8.293754 -4.733912 5.132838 -1.500075 0.328137 11.675293 -30.721202 -9.794837 26.977447 -54.812686 -12.761502 34.871788 20.061419 -3.773969 -13.337496 -4.506236 -1.517531 -4.478737 -29.215087 4.448159 -5.517747 -50.883112 -13.070000 -3.832557 -12.276163 16.659138 8.203208 -29.385039 6.948998 -52.853548 86.333857 -55.186954 1.740018 -23.042942 8.087756 0.001393 -0.014952 0.000814 2.035627 -26.932821 0.850694 150.336386 68.010191 162.944534 -0.437713 22.823860 0.515066 0.000257 -0.003758 0.000151
3.716052 131.567610 27.955419 166.213897 -49.696223 -1.477799 5.973459 28.836349 5.622939 0.884724 5.541726 0.806476 1.388722 8.678158 1.280058 4.423781 23.133140 4.133886 3.263530 16.467316 -3.760787 4.296148 -8.242613 -4.774463 5.136447 -1.535939 0.333397 11.652024 -30.671818 -9.748458 27.014156 -54.791291 -12.810093 34.864034 20.063534 -3.772462 -13.340161 -4.521163 -1.514863 -4.475804 -29.213064 4.478570 -5.573382 -50.807506 -13.043890 -3.798102 -12.389279 16.689180 8.198134 -29.393748 6.943200 -52.964208 86.330520 -55.297967 1.745986 -23.055457 8.095507 -0.000295 -0.010833 -0.000173 2.039674 -26.942076 0.835830 150.329552 68.008676 162.943123 -0.421469 22.813403 0.525140 -0.002450 -0.003027 -0.001432
3.590718 130.880326 28.135888 166.218362 -49.675568 -1.479138 5.992529 28.812577 5.648793 0.887855 5.533722 0.809728 1.391870 8.667841 1.283309 4.441300 23.117872 4.152897 3.275442 16.514911 -3.793376 4.313129 -8.186466 -4.812613 5.107467 -1.561150 0.335328 11.627999 -30.612777 -9.738337 26.972009 -54.790249 -12.772599 34.880501 20.068894 -3.776296 -13.348566 -4.550140 -1.501670 -4.487846 -29.184612 4.473063 -5.653896 -50.717679 -12.988299 -3.738763 -12.491800 16.682075 8.203676 -29.409359 6.931274 -52.969568 86.332024 -55.300442 1.746648 -23.064056 8.099425 -0.001638 -0.007615 -0.000958 2.046493 -26.956427 0.828698 150.346160 68.011994 162.957174 -0.403382 22.793508 0.535881 -0.002977 -0.006306 -0.001740
3.540886 130.599948 28.206419 166.213677 -49.654969 -1.470899 6.003975 28.790835 5.657257 0.904007 5.523076 0.824901 1.432496 8.632319 1.313799 4.464139 23.093652 4.181464 3.232544 16.595459 -3.833818 4.326206 -8.124476 -4.849179 5.013269 -1.524810 0.320962 11.621265 -30.582752 -9.684810 26.985794 -54.755376 -12.802093 34.899189 20.061881 -3.791033 -13.400926 -4.560199 -1.504112 -4.504014 -29.152314 4.461539 -5.746685 -50.613465 -12.921025 -3.692340 -12.613774 16.692055 8.215614 -29.425366 6.917080 -52.982185 86.337611 -55.310120 1.742070 -23.072040 8.102005 -0.002578 -0.006730 -0.001507 2.059440 -26.968980 0.819860 150.349216 68.018105 162.961292 -0.394475 22.784170 0.536442 -0.002151 -0.009559 -0.001258
3.523158 130.498056 28.230844 166.203243 -49.605233 -1.451111 6.013233 28.740973 5.655411 0.921867 5.509961 0.841672 1.437544 8.615846 1.319553 4.500357 23.060526 4.214019 3.198137 16.665047 -3.865597 4.353836 -8.052804 -4.889630 4.966354 -1.556942 0.316858 11.595157 -30.489556 -9.622825 27.019879 -54.710073 -12.852687 34.913712 20.058336 -3.812847 -13.378136 -4.658482 -1.453837 -4.533564 -29.044969 4.381916 -5.851125 -50.501524 -12.844170 -3.670630 -12.766093 16.729181 8.233431 -29.473279 6.892219 -52.988256 86.349943 -55.319480 1.734048 -23.084373 8.106045 -0.001233 -0.004014 -0.000721 2.077314 -27.011980 0.802564 150.359313 68.023707 162.972099 -0.387511 22.772037 0.533564 -0.000348 -0.008445 -0.000204
3.522202 130.471676 28.231461 166.200407 -49.584102 -1.444407 6.038487 28.714508 5.685501 0.926210 5.498853 0.847004 1.442470 8.596640 1.325020 4.521071 23.035509 4.235599 3.141808 16.724719 -3.885675 4.414370 -7.969252 -4.939422 4.927038 -1.581537 0.313817 11.577932 -30.411847 -9.560665 27.061711 -54.649280 -12.911960 34.925101 20.046540 -3.852436 -13.361865 -4.729241 -1.422466 -4.561248 -28.958692 4.322975 -5.976843 -50.391021 -12.740184 -3.607873 -12.887975 16.719885 8.252556 -29.488855 6.872975 -52.892973 86.364763 -55.215386 1.727966 -23.095208 8.106085 -0.002504 -0.007469 -0.001464 2.083974 -27.024696 0.797917 150.370396 68.028202 162.982436 -0.385219 22.764237 0.534050 0.000711 -0.011405 0.000416
3.526456 130.466764 28.225919 166.197791 -49.558206 -1.439133 6.067840 28.685653 5.720197 0.925920 5.482909 0.852346 1.446832 8.574791 1.329871 4.540957 23.007798 4.256123 3.141842 16.801109 -3.911374 4.414629 -7.886547 -4.962747 4.898450 -1.609935 0.309026 11.598400 -30.330950 -9.446502 27.161371 -54.499430 -13.067660 34.905371 20.014841 -3.932867 -13.353636 -4.782432 -1.405344 -4.592953 -28.862604 4.257857 -6.129783 -50.290546 -12.590704 -3.525889 -13.007225 16.690676 8.274773 -29.509621 6.854337 -52.842960 86.370889 -55.150941 1.722309 -23.104790 8.103843 -0.003933 -0.011746 -0.002299 2.087922 -27.043747 0.795605 150.399500 68.030269 163.007114 -0.375433 22.755874 0.538168 0.000345 -0.012898 0.000201
3.530582 130.464454 28.220351 166.189297 -49.513671 -1.423295 6.090404 28.638527 5.745137 0.930314 5.465426 0.857197 1.450569 8.550204 1.334300 4.559766 22.977212 4.276147 3.137661 16.885920 -3.936167 4.417928 -7.798616 -4.986042 4.888253 -1.660642 0.303872 11.578176 -30.221296 -9.381111 27.210863 -54.395072 -13.137396 34.887774 20.002204 -4.004284 -13.338164 -4.836543 -1.391729 -4.617790 -28.841766 4.254985 -6.206671 -50.111294 -12.559466 -3.481232 -13.134606 16.685874 8.304419 -29.552306 6.826549 -52.850261 86.379518 -55.144359 1.718488 -23.111793 8.097886 -0.003772 -0.012144 -0.002205 2.098080 -27.084632 0.784772 150.406295 68.027697 163.008888 -0.375013 22.748320 0.548152 -0.001141 -0.014937 -0.000667
3.531525 130.458639 28.216969 166.174780 -49.441790 -1.389126 6.109556 28.563631 5.755289 0.933124 5.448520 0.859648 1.453851 8.523164 1.338419 4.543786 22.986484 4.272453 3.224236 16.938981 -3.952021 4.364872 -7.707322 -4.990448 4.906113 -1.730343 0.303203 11.578148 -30.132636 -9.319582 27.252263 -54.288601 -13.216727 34.916876 20.000980 -4.078086 -13.287736 -4.927288 -1.359636 -4.652834 -28.800032 4.232752 -6.308660 -49.941131 -12.489316 -3.474039 -13.258485 16.712914 8.348940 -29.623942 6.773820 -52.924147 86.393167 -55.202518 1.714500 -23.125078 8.097485 -0.002501 -0.007026 -0.001462 2.117035 -27.144897 0.760309 150.416747 68.028676 163.011248 -0.380614 22.726772 0.548569 -0.004046 -0.007771 -0.002366
3.538313 130.463743 28.205077 166.176515 -49.422961 -1.378793 6.130329 28.542824 5.785265 0.935141 5.427631 0.862852 1.446870 8.507883 1.333348 4.540638 22.984269 4.274905 3.273800 16.986078 -3.964494 4.345807 -7.610432 -5.004637 4.926152 -1.807952 0.304310 11.591196 -30.038425 -9.264014 27.284771 -54.169831 -13.294727 34.904809 19.981831 -4.170914 -13.237425 -5.021644 -1.326056 -4.693802 -28.709485 4.177192 -6.455449 -49.806441 -12.353836 -3.388776 -13.385420 16.684964 8.386713 -29.639980 6.736509 -53.123211 86.408339 -55.374706 1.727158 -23.143178 8.094225 -0.002815 -0.013335 -0.001645 2.114072 -27.149818 0.753395 150.437871 68.034030 163.023491 -0.377329 22.722984 0.539820 -0.003957 -0.011312 -0.002313
